<svg width="1764" height="588" viewBox="0 0 1764 588" fill="none" xmlns="http://www.w3.org/2000/svg">
<path d="M588.141 294C588.141 131.628 456.481 0 294.071 0C131.66 0 0 131.628 0 294C0 456.372 131.66 588 294.071 588C456.481 588 588.141 456.372 588.141 294Z" fill="url(#paint0_linear_469_39)"/>
<path d="M280.95 370.708C283.778 371.607 286.606 372.238 289.433 372.598C292.26 372.779 295.088 372.868 297.916 372.868C304.984 372.868 311.788 371.878 318.327 369.897C324.865 367.916 330.961 365.125 336.617 361.523C342.449 357.742 347.574 353.241 351.991 348.018C356.587 342.617 397.62 288.055 392.814 294.268L435.226 237.005C428.51 246.729 401.649 402.939 392.814 410.683C384.154 418.426 374.7 424.999 364.45 430.4C354.377 435.803 343.685 439.854 332.375 442.555C321.243 445.437 309.755 446.877 297.916 446.877C277.946 446.877 259.126 443.095 241.454 435.532C223.958 427.969 208.584 417.436 195.33 403.931C182.253 390.424 171.915 374.399 164.316 355.851C156.717 337.125 152.918 316.596 152.918 294.268C152.918 271.398 156.717 250.51 164.316 231.602C171.915 212.696 182.253 196.579 195.33 183.253C208.584 169.928 223.958 159.575 241.454 152.192C259.126 144.809 277.946 141.117 297.916 141.117C309.755 141.117 321.331 142.558 332.641 145.439C343.951 148.32 354.642 152.462 364.715 157.863C374.965 163.266 384.508 169.928 393.343 177.852C402.179 185.595 409.954 194.328 416.67 204.052L280.95 370.708ZM318.061 218.638C314.704 217.377 311.346 216.567 307.988 216.207C304.808 215.846 301.449 215.666 297.916 215.666C288.019 215.666 278.653 217.557 269.817 221.339C261.158 224.94 253.559 230.162 247.021 237.005C240.659 243.848 235.622 252.13 231.911 261.855C228.2 271.398 226.345 282.203 226.345 294.268C226.345 296.968 226.433 300.03 226.61 303.451C226.963 306.872 227.405 310.384 227.935 313.984C228.642 317.407 229.437 320.738 230.321 323.979C231.204 327.22 232.353 330.102 233.766 332.623L318.061 218.638Z" fill="white"/>
<path d="M828.25 242.75V278.25H885.5V311.25H828.25V349.75H893V384H785.5V208.5H893V242.75H828.25ZM912.254 314C912.254 299.667 914.921 287.083 920.254 276.25C925.754 265.417 933.171 257.083 942.504 251.25C951.837 245.417 962.254 242.5 973.754 242.5C982.921 242.5 991.254 244.417 998.754 248.25C1006.42 252.083 1012.42 257.25 1016.75 263.75V199H1059.5V384H1016.75V364C1012.75 370.667 1007 376 999.504 380C992.171 384 983.587 386 973.754 386C962.254 386 951.837 383.083 942.504 377.25C933.171 371.25 925.754 362.833 920.254 352C914.921 341 912.254 328.333 912.254 314ZM1016.75 314.25C1016.75 303.583 1013.75 295.167 1007.75 289C1001.92 282.833 994.754 279.75 986.254 279.75C977.754 279.75 970.504 282.833 964.504 289C958.671 295 955.754 303.333 955.754 314C955.754 324.667 958.671 333.167 964.504 339.5C970.504 345.667 977.754 348.75 986.254 348.75C994.754 348.75 1001.92 345.667 1007.75 339.5C1013.75 333.333 1016.75 324.917 1016.75 314.25ZM1228.18 244.5V384H1185.43V365C1181.1 371.167 1175.18 376.167 1167.68 380C1160.35 383.667 1152.18 385.5 1143.18 385.5C1132.51 385.5 1123.1 383.167 1114.93 378.5C1106.76 373.667 1100.43 366.75 1095.93 357.75C1091.43 348.75 1089.18 338.167 1089.18 326V244.5H1131.68V320.25C1131.68 329.583 1134.1 336.833 1138.93 342C1143.76 347.167 1150.26 349.75 1158.43 349.75C1166.76 349.75 1173.35 347.167 1178.18 342C1183.01 336.833 1185.43 329.583 1185.43 320.25V244.5H1228.18ZM1393.14 209.25V384H1375.64V302.25H1280.89V384H1263.39V209.25H1280.89V287.75H1375.64V209.25H1393.14ZM1551.32 247.5V384H1533.82V360C1529.82 368.5 1523.65 375 1515.32 379.5C1506.98 384 1497.65 386.25 1487.32 386.25C1470.98 386.25 1457.65 381.25 1447.32 371.25C1436.98 361.083 1431.82 346.417 1431.82 327.25V247.5H1449.07V325.25C1449.07 340.083 1452.73 351.417 1460.07 359.25C1467.57 367.083 1477.73 371 1490.57 371C1503.73 371 1514.23 366.833 1522.07 358.5C1529.9 350.167 1533.82 337.917 1533.82 321.75V247.5H1551.32ZM1608.52 277.75C1613.02 268.25 1619.94 260.5 1629.27 254.5C1638.77 248.5 1649.94 245.5 1662.77 245.5C1675.27 245.5 1686.44 248.417 1696.27 254.25C1706.1 259.917 1713.77 268.083 1719.27 278.75C1724.94 289.25 1727.77 301.5 1727.77 315.5C1727.77 329.5 1724.94 341.833 1719.27 352.5C1713.77 363.167 1706.02 371.417 1696.02 377.25C1686.19 383.083 1675.1 386 1662.77 386C1649.77 386 1638.52 383.083 1629.02 377.25C1619.69 371.25 1612.85 363.5 1608.52 354V384H1591.27V199H1608.52V277.75ZM1710.02 315.5C1710.02 304.167 1707.77 294.417 1703.27 286.25C1698.94 277.917 1692.94 271.583 1685.27 267.25C1677.6 262.917 1668.94 260.75 1659.27 260.75C1649.94 260.75 1641.35 263 1633.52 267.5C1625.85 272 1619.77 278.417 1615.27 286.75C1610.77 295.083 1608.52 304.75 1608.52 315.75C1608.52 326.75 1610.77 336.417 1615.27 344.75C1619.77 353.083 1625.85 359.5 1633.52 364C1641.35 368.5 1649.94 370.75 1659.27 370.75C1668.94 370.75 1677.6 368.583 1685.27 364.25C1692.94 359.75 1698.94 353.333 1703.27 345C1707.77 336.5 1710.02 326.667 1710.02 315.5Z" fill="white"/>
<defs>
<linearGradient id="paint0_linear_469_39" x1="482.276" y1="64.68" x2="105.97" y2="508.709" gradientUnits="userSpaceOnUse">
<stop stop-color="#2FB97D"/>
<stop offset="1" stop-color="#1AB69D"/>
</linearGradient>
</defs>
</svg>
